# xmcd
#
# Track frame offsets:
#	150
#	13268
#	27110
#	41776
#	55855
#	71150
#	87652
#	101435
#	115183
#	129060
#	147790
#	165145
#	181410
#	197507
#	213066
#	228045
#
# Disc length: 3209 seconds
#
# Revision: 6
# Processed by: cddbd v1.5.2PL0 Copyright (c) Steve Scherf et al.
# Submitted via: EZCDAudioConverter 8.0.2.1
#
DISCID=ca0c8710
DTITLE=SOM LIVRE - PRA SEMPRE SERTANEJO - 2001 - VOL.2 [CD 0155-2) SOM LIVRE
DYEAR=2001
DGENRE=Country
TTITLE0=CHITÃOZINHO and XORORÓ - FIO DE CABELO (BY GILMAR SINISTRO)
TTITLE1=GILBERTO and GILMAR - CAPA DE REVISTA (BY GILMAR SINISTRO)
TTITLE2=DANIEL - DENGO (BY GILMAR SINISTRO)
TTITLE3=TEODORO and SAMPAIO - A GOSTOSONA (BY GILMAR SINISTRO) 
TTITLE4=ZEZÉ DI CAMARGO and LUCIANO - É O AMOR  (BY GILMAR SINISTRO)
TTITLE5=JOÃO MINEIRO and MARCIANO - SEU AMOR AINDA É TUDO (BY GILMAR SINISTRO)
TTITLE6=TRIO PARADA DURA  - FUSCÃO PRETO (BY GILMAR SINISTRO)
TTITLE7=CÉLIO and CERRONE - MOCINHAS DA CIDADE (BY GILMAR SINISTRO)
TTITLE8=TIÃO CARREIRO and PARDINHO - AMARGURADO (BY GILMAR SINISTRO)
TTITLE9=LEANDRO and LEONARDO - DESCULPE, MAS EU VOU CHORAR (BY GILMAR SINISTRO)
TTITLE10=RENE and RONALDO - DE CORAÇÃO PARA CORAÇÃO (BY GILMAR SINISTRO)
TTITLE11=MARCELO COSTA - BOCA DE CEREJA (BY GILMAR SINISTRO)
TTITLE12=JOÃO PAULO and DANIEL - ROSTO MOLHADO (BY GILMAR SINISTRO)
TTITLE13=RICK and RENNER - ELA É DEMAIS (BY GILMAR SINISTRO)
TTITLE14=CHITÃOZINHO and XORORÓ - PÉ NA ESTRADA (BY GILMAR SINISTRO)
TTITLE15=ANDRÉ SILVA and CRISTIANO - CAÍ NO LAÇO (BY GILMAR SINISTRO)
EXTD=
EXTT0=
EXTT1=
EXTT2=
EXTT3=
EXTT4=
EXTT5=
EXTT6=
EXTT7=
EXTT8=
EXTT9=
EXTT10=
EXTT11=
EXTT12=
EXTT13=
EXTT14=
EXTT15=
PLAYORDER=
